<?xml version="1.0" encoding="UTF-8" standalone="no"?>
<svg
   xmlns:dc="http://purl.org/dc/elements/1.1/"
   xmlns:cc="http://creativecommons.org/ns#"
   xmlns:rdf="http://www.w3.org/1999/02/22-rdf-syntax-ns#"
   xmlns:svg="http://www.w3.org/2000/svg"
   xmlns="http://www.w3.org/2000/svg"
   height="100%"
   width="100%"
   version="1.1"
   id="svg3025"
   viewBox="0 -256 1792 1792">
  <metadata
     id="metadata3035">
    <rdf:RDF>
      <cc:Work
         rdf:about="">
        <dc:format>image/svg+xml</dc:format>
        <dc:type
           rdf:resource="http://purl.org/dc/dcmitype/StillImage" />
        <dc:title></dc:title>
      </cc:Work>
    </rdf:RDF>
  </metadata>
  <defs
     id="defs3033" />
  <g
     id="g3027"
     transform="matrix(1,0,0,-1,53.152542,1338.5763)">
    <path
       style="fill:currentColor"
       id="path3029"
       d="M 768,1216 V 512 Q 768,408 727.5,313.5 687,219 618,150 549,81 454.5,40.5 360,0 256,0 h -64 q -26,0 -45,19 -19,19 -19,45 v 128 q 0,26 19,45 19,19 45,19 h 64 q 106,0 181,75 75,75 75,181 v 32 q 0,40 -28,68 -28,28 -68,28 H 192 Q 112,640 56,696 0,752 0,832 v 384 q 0,80 56,136 56,56 136,56 h 384 q 80,0 136,-56 56,-56 56,-136 z m 896,0 V 512 Q 1664,408 1623.5,313.5 1583,219 1514,150 1445,81 1350.5,40.5 1256,0 1152,0 h -64 q -26,0 -45,19 -19,19 -19,45 v 128 q 0,26 19,45 19,19 45,19 h 64 q 106,0 181,75 75,75 75,181 v 32 q 0,40 -28,68 -28,28 -68,28 h -224 q -80,0 -136,56 -56,56 -56,136 v 384 q 0,80 56,136 56,56 136,56 h 384 q 80,0 136,-56 56,-56 56,-136 z" />
  </g>
</svg>
